<svg width="32" height="32" viewBox="0 0 32 32" fill="none" xmlns="http://www.w3.org/2000/svg">
<path opacity="0.5" d="M5.55774 26.9763H9.04375C9.35173 26.9763 9.60157 27.2102 9.60157 27.4984C9.60157 27.7869 9.35173 28.0208 9.04375 28.0208H5.55774C5.24971 28.0208 5 27.7869 5 27.4984C5 27.2102 5.24971 26.9763 5.55774 26.9763Z" fill="#FC371D"/>
<path d="M7.04412 25.164H10.538C10.8468 25.164 11.0969 25.4515 11.0969 25.8061C11.0969 26.161 10.8468 26.4485 10.538 26.4485H7.04412C6.73529 26.4485 6.48499 26.161 6.48499 25.8061C6.48499 25.4515 6.73529 25.164 7.04412 25.164Z" fill="#FC371D"/>
<path d="M19.3268 11.1846C19.3276 11.1777 19.3287 11.1713 19.3292 11.1644H19.3244C19.2474 10.3828 18.7167 9.83648 18.7167 9.83648C18.7167 9.83648 13.6499 3.82316 12.8004 2.92164C11.9508 2.01985 10.7845 1.99986 10.7845 1.99986H6.97335C4.44357 2.18411 6.34191 4.67001 6.34191 4.67001C6.34191 4.67001 10.46 9.22854 11.0981 10.1551C11.565 10.8335 11.6458 11.0804 11.6559 11.1644H11.6538C11.6538 11.1644 11.6562 11.1686 11.657 11.1796L11.6573 11.1846L11.657 11.1897C11.6562 11.2006 11.6538 11.2049 11.6538 11.2049H11.6559C11.6458 11.2889 11.565 11.5358 11.0981 12.2141C10.46 13.1407 6.34191 17.6992 6.34191 17.6992C6.34191 17.6992 4.44357 20.1851 6.97335 20.3694H10.7845C10.7845 20.3694 11.9508 20.3494 12.8004 19.4476C13.6499 18.5461 18.7167 12.5328 18.7167 12.5328C18.7167 12.5328 19.2474 11.9864 19.3244 11.2049H19.3292C19.3287 11.198 19.3276 11.1916 19.3268 11.1846Z" fill="#FC371D"/>
<path d="M22.2765 21.4955C21.8093 20.8169 21.7285 20.5699 21.7187 20.486H21.7205C21.7205 20.486 21.7181 20.482 21.7173 20.471L21.7171 20.466L21.7173 20.4609C21.7181 20.45 21.7205 20.4457 21.7205 20.4457H21.7187C21.7285 20.3617 21.8093 20.1148 22.2765 19.4365C22.9143 18.5099 27.0324 13.9513 27.0324 13.9513C27.0324 13.9513 28.9309 11.4654 26.401 11.2812H22.5898C22.5898 11.2812 21.4235 11.3012 20.574 12.203C19.7244 13.1045 14.6576 19.1178 14.6576 19.1178C14.6576 19.1178 14.127 19.6639 14.0499 20.4457H14.0451C14.0457 20.4526 14.047 20.459 14.0475 20.466C14.047 20.4726 14.0457 20.4793 14.0451 20.486H14.0499C14.127 21.2678 14.6576 21.8138 14.6576 21.8138C14.6576 21.8138 19.7244 27.8274 20.574 28.729C21.4235 29.6307 22.5898 29.6507 22.5898 29.6507H26.401C28.9309 29.4665 27.0324 26.9806 27.0324 26.9806C27.0324 26.9806 22.9143 22.4221 22.2765 21.4955Z" fill="#FC371D"/>
</svg>
