<?xml version="1.0" encoding="UTF-8"?>
<svg version="1.1" xmlns="http://www.w3.org/2000/svg" width="53.87" height="43.61">
<path d="M0 0 C1.7591961 -0.0006748 3.51839211 -0.00164629 5.27758789 -0.00289917 C8.95232029 -0.00436786 12.62702827 -0.00224833 16.30175781 0.00244141 C20.99202926 0.00813817 25.68224346 0.00485472 30.37251282 -0.00113106 C34.00150985 -0.0047591 37.63049351 -0.0035878 41.25949097 -0.00100327 C42.98810839 -0.0003402 44.71672706 -0.00114054 46.44534302 -0.00348282 C72.92023618 -0.03149103 72.92023618 -0.03149103 82.64453125 7.4453125 C86.08324353 10.93357395 86.88601799 14.71481149 87.140625 19.41796875 C86.5597637 27.18140345 82.5181945 34.35506934 78.9375 41.1328125 C78.2775 41.1328125 77.6175 41.1328125 76.9375 41.1328125 C76.69 41.8546875 76.4425 42.5765625 76.1875 43.3203125 C73.67761462 48.96755461 69.49523465 52.49800064 64.890625 56.4375 C62.45004677 58.5559219 60.19142284 60.81797283 57.9375 63.1328125 C57.1125 63.9371875 56.2875 64.7415625 55.4375 65.5703125 C52.85469933 68.14221958 52.85469933 68.14221958 50.4375 71.1953125 C48.09953314 73.94242357 45.73954949 75.89117291 42.9375 78.1328125 C42.133125 79.1021875 41.32875 80.0715625 40.5 81.0703125 C37.88550535 84.19495245 35.06524536 86.53744933 31.9375 89.1328125 C30.59922696 90.79551537 29.26560215 92.46197431 27.9375 94.1328125 C27.133125 94.7721875 26.32875 95.4115625 25.5 96.0703125 C23.36433444 97.78926283 21.9316588 99.27084689 20.25 101.3828125 C19.1053125 102.7440625 19.1053125 102.7440625 17.9375 104.1328125 C17.2775 104.1328125 16.6175 104.1328125 15.9375 104.1328125 C15.6075 105.1228125 15.2775 106.1128125 14.9375 107.1328125 C14.2775 107.1328125 13.6175 107.1328125 12.9375 107.1328125 C12.67106689 107.72594238 12.40463379 108.31907227 12.13012695 108.93017578 C10.91288346 111.17827626 9.68350937 112.60351903 7.85546875 114.375 C6.95151367 115.26251953 6.95151367 115.26251953 6.02929688 116.16796875 C5.40087891 116.77511719 4.77246094 117.38226563 4.125 118.0078125 C-1.10494379 123.08560922 -1.10494379 123.08560922 -5.88671875 128.578125 C-6.60472656 129.42117188 -7.32273437 130.26421875 -8.0625 131.1328125 C-8.7225 131.1328125 -9.3825 131.1328125 -10.0625 131.1328125 C-10.30742187 131.70128906 -10.55234375 132.26976562 -10.8046875 132.85546875 C-12.28061276 135.52771853 -14.06460865 137.37715123 -16.1875 139.5703125 C-22.35919717 146.31124387 -29.40723772 154.71014093 -30.0625 164.1328125 C-28.7625156 167.31643686 -28.7625156 167.31643686 -27.0625 170.1328125 C-26.7325 171.1228125 -26.4025 172.1128125 -26.0625 173.1328125 C-25.4025 173.1328125 -24.7425 173.1328125 -24.0625 173.1328125 C-21.0625 177.51742788 -21.0625 177.51742788 -21.0625 180.1328125 C-20.4025 180.1328125 -19.7425 180.1328125 -19.0625 180.1328125 C-16.0625 183.59435096 -16.0625 183.59435096 -16.0625 186.1328125 C-15.0725 186.4628125 -14.0825 186.7928125 -13.0625 187.1328125 C-11.30859375 188.83984375 -11.30859375 188.83984375 -9.5 190.9453125 C-8.90058594 191.63238281 -8.30117188 192.31945312 -7.68359375 193.02734375 C-6.0625 195.1328125 -6.0625 195.1328125 -5.09765625 197.26953125 C-3.7767684 199.64712938 -2.48415678 199.9757987 -0.0625 201.1328125 C1.734375 202.953125 1.734375 202.953125 3.6875 205.2578125 C8.74417286 211.05386442 14.18834885 216.41580092 19.70410156 221.77392578 C20.38053711 222.4389209 21.05697266 223.10391602 21.75390625 223.7890625 C22.67345093 224.68334961 22.67345093 224.68334961 23.61157227 225.59570312 C24.9375 227.1328125 24.9375 227.1328125 24.9375 229.1328125 C25.494375 229.3596875 26.05125 229.5865625 26.625 229.8203125 C29.59003447 231.5031699 31.59103689 233.66902624 33.9375 236.1328125 C34.700625 236.8546875 35.46375 237.5765625 36.25 238.3203125 C37.9375 240.1328125 37.9375 240.1328125 37.9375 242.1328125 C38.494375 242.3596875 39.05125 242.5865625 39.625 242.8203125 C43.70894677 245.13822823 46.49352697 248.58894554 49.4375 252.1953125 C51.78132205 255.13755715 51.78132205 255.13755715 54.4375 257.1328125 C57.38803996 259.49324447 59.52209781 262.23432987 61.9375 265.1328125 C63.58045195 266.49526046 65.24574337 267.83146125 66.9375 269.1328125 C69.25 271.2578125 69.25 271.2578125 70.9375 273.1328125 C70.9375 273.7928125 70.9375 274.4528125 70.9375 275.1328125 C71.9275 275.4628125 72.9175 275.7928125 73.9375 276.1328125 C80.7773709 284.91767039 87.69619884 296.75232991 86.9375 308.1328125 C85.40176903 313.96859017 82.92885254 316.70363966 77.72253418 319.75361633 C67.15540217 324.98663935 55.32918413 324.56557305 43.84375 324.49609375 C42.12227377 324.49557345 40.40079694 324.4960977 38.67932129 324.49760437 C35.09227488 324.49751527 31.50545612 324.48721517 27.91845703 324.46899414 C23.35641201 324.44630955 18.79469854 324.44576988 14.23261261 324.45251179 C10.68407322 324.45587809 7.13560728 324.44917199 3.58708191 324.43938255 C1.90643194 324.43557598 0.22577375 324.43436311 -1.45487976 324.4359684 C-27.3607242 324.4401074 -44.39562158 317.98686889 -63.0625 300.1328125 C-63.67351562 299.56949219 -64.28453125 299.00617188 -64.9140625 298.42578125 C-66.0625 297.1328125 -66.0625 297.1328125 -66.0625 295.1328125 C-66.68125 294.8853125 -67.3 294.6378125 -67.9375 294.3828125 C-70.46608627 292.89540881 -70.78089004 291.69603241 -72.0625 289.1328125 C-72.63742187 288.875 -73.21234375 288.6171875 -73.8046875 288.3515625 C-76.89255564 286.68475478 -78.9077582 284.2372448 -81.1875 281.6328125 C-86.28930252 275.9314576 -91.61032278 270.50125321 -97.0625 265.1328125 C-100.26592055 261.97402164 -103.33619045 258.75596333 -106.3125 255.3828125 C-111.49994534 249.58151946 -116.99244491 244.12611622 -122.5625 238.6953125 C-127.53636427 233.59710162 -132.34829057 228.3098198 -136.8125 222.7578125 C-138.9384418 220.10695537 -138.9384418 220.10695537 -141.4375 218.2578125 C-145.08722878 215.30327015 -148.24085724 211.88958183 -151.0625 208.1328125 C-151.0625 207.4728125 -151.0625 206.8128125 -151.0625 206.1328125 C-151.63226563 205.90078125 -152.20203125 205.66875 -152.7890625 205.4296875 C-155.62408353 203.81245901 -157.30626717 201.85055577 -159.4375 199.3828125 C-162.0825756 196.35737065 -164.72533389 193.41538995 -167.625 190.6328125 C-170.0625 188.1328125 -170.0625 188.1328125 -170.0625 186.1328125 C-170.64773437 185.90980469 -171.23296875 185.68679688 -171.8359375 185.45703125 C-177.20718191 182.26255431 -180.29896267 175.09145173 -182.5 169.4453125 C-184.19324411 159.47398607 -182.35596127 152.17179941 -176.625 143.8828125 C-175.44894695 142.29095826 -174.26279363 140.70646936 -173.0625 139.1328125 C-172.0415625 137.740625 -172.0415625 137.740625 -171 136.3203125 C-168.59496601 133.60495154 -165.84681697 131.45307664 -163.0625 129.1328125 C-162.32 128.2046875 -161.5775 127.2765625 -160.8125 126.3203125 C-159.94625 125.2375 -159.94625 125.2375 -159.0625 124.1328125 C-158.4025 124.1328125 -157.7425 124.1328125 -157.0625 124.1328125 C-156.835625 123.5965625 -156.60875 123.0603125 -156.375 122.5078125 C-153.48495678 117.27821048 -149.70638872 113.77261718 -145.0625 110.1328125 C-144.0725 108.6478125 -144.0725 108.6478125 -143.0625 107.1328125 C-142.4025 107.1328125 -141.7425 107.1328125 -141.0625 107.1328125 C-140.79824219 106.53984375 -140.53398437 105.946875 -140.26171875 105.3359375 C-139.01879575 103.05252196 -137.75848354 101.65854527 -135.875 99.8828125 C-133.26348145 97.35273424 -130.81217871 94.76181625 -128.4375 92.0078125 C-125.76312778 88.91148378 -122.99383827 85.99086731 -120.0625 83.1328125 C-115.67168638 78.84805718 -111.55057809 74.46651448 -107.640625 69.734375 C-106.0625 68.1328125 -106.0625 68.1328125 -103.0625 67.1328125 C-102.37255141 65.81137648 -101.70945073 64.47582292 -101.0625 63.1328125 C-99.8187746 61.74084093 -98.51960176 60.39740652 -97.18359375 59.09375 C-96.42755859 58.34867188 -95.67152344 57.60359375 -94.89257812 56.8359375 C-94.10302734 56.06765625 -93.31347656 55.299375 -92.5 54.5078125 C-90.93402109 52.97618081 -89.37011061 51.44243055 -87.80859375 49.90625 C-86.76723267 48.89183838 -86.76723267 48.89183838 -85.70483398 47.85693359 C-83.98293505 46.21792699 -83.98293505 46.21792699 -83.0625 44.1328125 C-82.4025 44.1328125 -81.7425 44.1328125 -81.0625 44.1328125 C-80.7325 43.1428125 -80.4025 42.1528125 -80.0625 41.1328125 C-79.4025 41.1328125 -78.7425 41.1328125 -78.0625 41.1328125 C-77.835625 40.5965625 -77.60875 40.0603125 -77.375 39.5078125 C-74.49356379 34.29378507 -70.7147779 30.73832787 -66.0625 27.1328125 C-63.56070163 24.69355909 -61.12581737 22.19779611 -58.6875 19.6953125 C-56.71700237 17.77173148 -54.74471796 15.89793024 -52.6875 14.0703125 C-52.16414062 13.60496094 -51.64078125 13.13960937 -51.1015625 12.66015625 C-46.06189579 8.88523349 -40.49628795 6.28462564 -34.6875 3.9453125 C-34.0790625 3.68556641 -33.470625 3.42582031 -32.84375 3.15820312 C-22.49564787 -1.03082985 -10.96603975 -0.014859 0 0 Z " fill="#FA361C" transform="translate(377.0625,170.8671875)"/>
<path d="M0 0 C1.71811525 -0.00389873 3.43622955 -0.00823576 5.15434265 -0.01298523 C8.73891334 -0.02040286 12.32338546 -0.02018903 15.90795898 -0.01489258 C20.45980822 -0.00910736 25.0112493 -0.02602792 29.5630312 -0.04923725 C33.10735866 -0.06410153 36.65159071 -0.06482915 40.19594383 -0.06172752 C41.87216181 -0.0622345 43.54838604 -0.06735226 45.22457314 -0.07753944 C59.01193726 -0.15106342 72.68417345 0.58540899 85.07421875 7.30078125 C85.74976807 7.62747803 86.42531738 7.9541748 87.12133789 8.29077148 C95.61785452 12.82218523 101.96849457 19.65968926 108.64599609 26.4609375 C110.71853651 28.57044356 112.80709631 30.66305312 114.8984375 32.75390625 C116.22100728 34.0862921 117.54265693 35.41959209 118.86328125 36.75390625 C119.48812408 37.38097473 120.11296692 38.00804321 120.75674438 38.65411377 C125.07421875 43.06851805 125.07421875 43.06851805 125.07421875 45.30078125 C125.63109375 45.52765625 126.18796875 45.75453125 126.76171875 45.98828125 C134.3310159 50.28436882 140.44167714 58.98167095 145.82421875 65.67578125 C147.95016055 68.32663838 147.95016055 68.32663838 150.44921875 70.17578125 C153.45663465 72.61035603 155.79196454 75.32975437 158.29296875 78.26953125 C159.95872581 80.16907877 161.69216539 81.92489028 163.51171875 83.67578125 C166.07421875 86.30078125 166.07421875 86.30078125 166.07421875 88.30078125 C166.62078125 88.50960937 167.16734375 88.7184375 167.73046875 88.93359375 C170.93722997 90.80420446 173.14845684 93.41953407 175.57421875 96.17578125 C179.39120644 100.46617832 179.39120644 100.46617832 183.41796875 104.55859375 C185.07421875 106.30078125 185.07421875 106.30078125 185.07421875 108.30078125 C185.64398438 108.53410156 186.21375 108.76742187 186.80078125 109.0078125 C189.62195747 110.61229588 191.31661018 112.54513494 193.44921875 114.98828125 C194.23554688 115.88160156 195.021875 116.77492188 195.83203125 117.6953125 C197.67962057 119.84224991 199.50589168 122.00415228 201.32421875 124.17578125 C202.99643121 126.15036637 204.4639897 127.61059919 206.51171875 129.23828125 C210.18370538 132.19378268 213.07617252 135.67786507 216.07421875 139.30078125 C216.60402344 139.93113281 217.13382812 140.56148437 217.6796875 141.2109375 C222.45331246 147.18717235 227.17790139 154.53174347 227.63671875 162.36328125 C226.1779357 172.57476257 220.89395767 180.76317507 214.07421875 188.30078125 C213.41421875 188.30078125 212.75421875 188.30078125 212.07421875 188.30078125 C211.74421875 189.29078125 211.41421875 190.28078125 211.07421875 191.30078125 C210.41421875 191.30078125 209.75421875 191.30078125 209.07421875 191.30078125 C208.84476563 191.85894531 208.6153125 192.41710937 208.37890625 192.9921875 C206.72046354 195.92673733 204.62530353 197.90218478 202.19921875 200.23828125 C198.88411251 203.43958534 195.91808243 206.67636775 193.07421875 210.30078125 C191.40755208 211.96744792 189.74088542 213.63411458 188.07421875 215.30078125 C187.43484375 216.12578125 186.79546875 216.95078125 186.13671875 217.80078125 C183.73132838 220.71640594 180.97425487 222.88408449 178.07421875 225.30078125 C176.96046875 226.69296875 176.96046875 226.69296875 175.82421875 228.11328125 C175.24671875 228.83515625 174.66921875 229.55703125 174.07421875 230.30078125 C173.41421875 230.30078125 172.75421875 230.30078125 172.07421875 230.30078125 C171.73390625 231.10515625 171.73390625 231.10515625 171.38671875 231.92578125 C169.13462947 236.00099042 166.33288748 239.30709541 162.69921875 242.17578125 C159.77898527 244.53977978 157.54618904 247.151304 155.1171875 250.00390625 C151.94725818 253.56780384 148.52574438 256.86923207 145.11328125 260.19921875 C143.03295784 262.13174171 143.03295784 262.13174171 142.07421875 264.30078125 C141.41421875 264.30078125 140.75421875 264.30078125 140.07421875 264.30078125 C139.74421875 265.29078125 139.41421875 266.28078125 139.07421875 267.30078125 C137.45318907 269.01186814 135.77918412 270.67331431 134.07421875 272.30078125 C132.93432719 273.43855798 131.79485416 274.57675772 130.65771484 275.71728516 C128.7073193 277.6676807 126.74790284 279.6088676 124.7890625 281.55078125 C123.19655417 283.13405382 121.60410782 284.71738873 120.01171875 286.30078125 C119.20927734 287.09484375 118.40683594 287.88890625 117.58007812 288.70703125 C113.84092276 292.43067144 110.3094284 296.12196879 107.07421875 300.30078125 C106.26984375 300.94015625 105.46546875 301.57953125 104.63671875 302.23828125 C101.93810317 304.2505528 101.93810317 304.2505528 99.82421875 307.17578125 C91.79930164 317.10661617 76.45153426 322.7716612 64.08279419 324.08860779 C57.18294626 324.57520507 50.24988048 324.46571323 43.3359375 324.46875 C41.6063484 324.47196971 39.87675957 324.4753343 38.14717102 324.47883606 C34.53210825 324.48480116 30.91706929 324.48667865 27.30200195 324.48608398 C22.69942043 324.48598249 18.09699359 324.49963395 13.49444866 324.51685619 C9.92451799 324.52804522 6.35462391 324.53000109 2.78467751 324.52947426 C1.08923624 324.53064402 -0.60620629 324.53500848 -2.30163002 324.54280663 C-30.09183794 324.65867459 -30.09183794 324.65867459 -39.92578125 316.30078125 C-43.10585689 312.08645608 -43.43896304 307.43259914 -42.92578125 302.30078125 C-38.85495521 280.28439707 -19.16877621 265.40339385 -4.05078125 250.36328125 C-2.36044164 248.67797048 -0.67033587 246.99242515 1.01953125 245.30664062 C4.76976394 241.56624931 8.52253189 237.82841868 12.27655029 234.09182739 C13.82850697 232.54558786 15.37818761 230.9971382 16.92626953 229.44702148 C18.48637501 227.88815728 20.05810119 226.34089595 21.63671875 224.80078125 C23.96741511 222.41032345 26.00738451 219.91877128 28.07421875 217.30078125 C29.69921875 215.48828125 29.69921875 215.48828125 31.07421875 214.30078125 C31.73421875 214.30078125 32.39421875 214.30078125 33.07421875 214.30078125 C33.40421875 213.31078125 33.73421875 212.32078125 34.07421875 211.30078125 C35.6976168 209.5919412 37.36740928 207.92631408 39.07421875 206.30078125 C39.63109375 205.70265625 40.18796875 205.10453125 40.76171875 204.48828125 C42.07421875 203.30078125 42.07421875 203.30078125 44.07421875 203.30078125 C44.33589844 202.72199219 44.59757812 202.14320313 44.8671875 201.546875 C46.14714614 199.16507494 47.58777929 197.37761479 49.38671875 195.36328125 C49.96035156 194.71488281 50.53398438 194.06648437 51.125 193.3984375 C52.54030449 191.87535431 53.99678763 190.39021327 55.4765625 188.9296875 C58.25023314 186.1226494 60.80063442 183.20559358 63.32421875 180.17578125 C63.77023438 179.65113281 64.21625 179.12648437 64.67578125 178.5859375 C66.70497332 176.15705608 68.06313801 174.33402346 69.07421875 171.30078125 C69.73421875 171.30078125 70.39421875 171.30078125 71.07421875 171.30078125 C72.69767076 167.62095669 73.81813407 164.32919019 74.07421875 160.30078125 C72.61326936 157.20243549 72.61326936 157.20243549 70.38671875 154.30078125 C69.68160156 153.31078125 68.97648437 152.32078125 68.25 151.30078125 C67.53199219 150.31078125 66.81398438 149.32078125 66.07421875 148.30078125 C65.37683594 147.24117187 64.67945313 146.1815625 63.9609375 145.08984375 C61.35965088 141.24446353 58.12021974 138.29024164 54.76171875 135.11328125 C53.07421875 133.30078125 53.07421875 133.30078125 53.07421875 131.30078125 C52.41421875 131.30078125 51.75421875 131.30078125 51.07421875 131.30078125 C49.76953125 129.97265625 49.76953125 129.97265625 48.19921875 128.05078125 C43.59825993 122.62822264 38.54665413 117.69018433 33.48901367 112.69970703 C31.34135821 110.57614088 29.2098584 108.4364209 27.07421875 106.30078125 C25.80578125 105.06328125 25.80578125 105.06328125 24.51171875 103.80078125 C22.17972932 101.40899722 20.15906404 98.90683786 18.07421875 96.30078125 C16.42878095 94.61315274 14.76133298 92.94674635 13.07421875 91.30078125 C12.24921875 90.45515625 11.42421875 89.60953125 10.57421875 88.73828125 C8.18030907 86.30621878 8.18030907 86.30621878 5.69921875 84.48828125 C3.51117804 82.66491399 1.89289506 80.98890968 0.07421875 78.83203125 C-4.54291895 73.5012701 -9.54366884 68.5748107 -14.55078125 63.61328125 C-15.47890625 62.68966797 -16.40703125 61.76605469 -17.36328125 60.81445312 C-19.08819027 59.09819337 -20.81413292 57.38297128 -22.54150391 55.66918945 C-32.76134495 45.51736906 -42.61829522 34.94614433 -42.98828125 19.73046875 C-42.70386409 13.77548439 -41.46351584 10.44393022 -36.92578125 6.30078125 C-26.52431869 -1.34110961 -12.33115517 -0.01178347 0 0 Z " fill="#FA361C" transform="translate(71.92578125,7.69921875)"/>
<path d="M0 0 C0.68198959 -0.00671722 1.36397919 -0.01343445 2.06663513 -0.02035522 C4.31093727 -0.03928184 6.55493953 -0.04325662 8.79931641 -0.04541016 C10.36723959 -0.05184169 11.93516158 -0.05857032 13.50308228 -0.06558228 C16.78642559 -0.07754159 20.06966379 -0.08126448 23.35302734 -0.08007812 C27.54838721 -0.07987498 31.74306931 -0.10717745 35.93826866 -0.14162254 C39.17604636 -0.16392276 42.41366172 -0.16791472 45.65150833 -0.16685867 C47.19759075 -0.16920992 48.74367796 -0.17800657 50.2896843 -0.19352341 C65.30683049 -0.33013959 65.30683049 -0.33013959 71.02587891 4.29052734 C73.50582136 7.25045866 73.9878082 8.93520072 74.40087891 12.79052734 C73.90178827 17.44870659 72.5433001 19.91995336 69.08837891 23.04052734 C64.97001235 25.53650707 61.0023566 25.42496092 56.25708008 25.45166016 C55.58499008 25.45662506 54.91290009 25.46158997 54.22044373 25.46670532 C52.0032345 25.48127601 49.78609684 25.4881206 47.56884766 25.49365234 C46.0219167 25.49940824 44.47498575 25.50516592 42.92805481 25.51092529 C39.68583851 25.52142097 36.4436469 25.52727292 33.20141602 25.53076172 C29.05884976 25.53624171 24.91661296 25.56026497 20.77414989 25.58873367 C17.57842574 25.60741204 14.38278011 25.61256842 11.187006 25.6140976 C9.66046664 25.61711322 8.13392831 25.62510475 6.60744286 25.63828278 C4.46566499 25.65545201 2.3246812 25.65343711 0.18286133 25.64697266 C-1.64103874 25.6524411 -1.64103874 25.6524411 -3.50178528 25.65802002 C-8.83123795 25.09398044 -12.70063278 23.62769007 -16.47412109 19.66552734 C-18.45429739 15.21013069 -18.45253699 11.92232745 -16.97412109 7.29052734 C-12.29355876 1.17979319 -7.44315415 0.04616713 0 0 Z " fill="#EF341B" transform="translate(62.97412109375,413.70947265625)"/>
<path d="M0 0 C0.71110428 -0.00671722 1.42220856 -0.01343445 2.15486145 -0.02035522 C4.50199403 -0.03932757 6.84884046 -0.04325921 9.19604492 -0.04541016 C10.83265804 -0.05183944 12.46927002 -0.0585679 14.10588074 -0.06558228 C17.53643456 -0.0775537 20.9668877 -0.08126332 24.39746094 -0.08007812 C28.78228738 -0.07987513 33.16646429 -0.10715741 37.55113697 -0.14162254 C40.93217401 -0.16391949 44.31305554 -0.16791479 47.69415855 -0.16685867 C49.31001711 -0.16921119 50.92588018 -0.17801502 52.54166603 -0.19352341 C54.80818023 -0.21323778 57.07330461 -0.20732509 59.33984375 -0.1953125 C61.27033318 -0.19958755 61.27033318 -0.19958755 63.23982239 -0.20394897 C67.78360073 0.41599369 70.08933821 1.70949493 73.86401367 4.29052734 C76.20570131 7.8030588 76.36025045 9.1552209 75.86401367 13.29052734 C73.77142516 16.46548922 72.03710081 18.17513592 68.86401367 20.29052734 C66.38918575 20.49456941 64.02592676 20.58426112 61.55029297 20.58105469 C60.80846771 20.58777191 60.06664246 20.59448914 59.30233765 20.60140991 C56.84756791 20.62042206 54.39307122 20.62431596 51.93823242 20.62646484 C50.23053373 20.63289151 48.52283614 20.63961977 46.81513977 20.64663696 C43.2331792 20.65861845 39.65131513 20.66231699 36.06933594 20.66113281 C31.48597632 20.66092979 26.90323795 20.68821004 22.32002544 20.72267723 C18.79148027 20.74495051 15.26308436 20.7489702 11.73447609 20.74791336 C10.04522375 20.75026952 8.3559673 20.75909393 6.66678429 20.77457809 C4.29939113 20.79424355 1.93333408 20.78839846 -0.43408203 20.77636719 C-1.47466515 20.79322571 -1.47466515 20.79322571 -2.53627014 20.8104248 C-7.50394528 20.74648869 -10.31644418 19.40717568 -14.13598633 16.29052734 C-16.48148307 12.77228223 -16.71590036 11.4327704 -16.13598633 7.29052734 C-11.26458146 1.33658806 -7.54343024 0.04476708 0 0 Z " fill="#E5331B" transform="translate(32.135986328125,445.70947265625)"/>
</svg>
